<?xml version="1.0" encoding="UTF-8"?>
<svg version="1.1" xmlns="http://www.w3.org/2000/svg" width="512" height="512">
<path d="M0 0 C3.04927156 0.01078954 6.09796217 0.00000279 9.1472168 -0.01269531 C34.11039521 -0.03211905 34.11039521 -0.03211905 40.97338867 4.32324219 C43.38217345 8.36655949 43.64741151 11.6656016 42.72338867 16.26074219 C40.92945199 19.13104087 39.74075591 20.75205857 36.72338867 22.26074219 C29.88510513 22.59933949 23.03157367 22.20629365 16.20410156 21.80224609 C-37.44222622 18.80553911 -92.02973293 34.00941709 -135.27661133 66.26074219 C-135.88053711 66.7091748 -136.48446289 67.15760742 -137.10668945 67.61962891 C-146.01052941 74.28790387 -154.25811971 81.55876998 -162.27661133 89.26074219 C-163.17379883 90.11667969 -164.07098633 90.97261719 -164.99536133 91.85449219 C-206.95530403 132.77838692 -231.18871325 192.88282808 -232.30786133 251.16308594 C-232.4783523 315.59801676 -208.83017234 374.87621292 -164.27661133 421.26074219 C-163.42067383 422.15792969 -162.56473633 423.05511719 -161.68286133 423.97949219 C-119.85008526 466.87132588 -59.42740393 490.06608824 -0.08911133 491.22949219 C53.93241375 491.72316148 107.91323107 473.71709333 149.72338867 439.26074219 C150.27800781 438.80763672 150.83262695 438.35453125 151.40405273 437.88769531 C164.38584122 427.22434455 176.52360057 415.65021668 186.72338867 402.26074219 C187.15748047 401.69242676 187.59157227 401.12411133 188.03881836 400.53857422 C226.18848265 350.33532461 243.76748699 288.02956187 235.52563477 225.33935547 C230.22150062 187.93542643 216.85240342 153.59622224 195.72338867 122.26074219 C195.06338867 121.27074219 194.40338867 120.28074219 193.72338867 119.26074219 C193.59383789 120.47310547 193.59383789 120.47310547 193.46166992 121.70996094 C192.82344542 126.56398033 192.30956938 130.33706349 189.66088867 134.51074219 C185.61757137 136.91952696 182.31852926 137.18476502 177.72338867 136.26074219 C174.85308999 134.46680551 173.23207229 133.27810942 171.72338867 130.26074219 C171.60886918 128.81234196 171.55402829 127.35898025 171.53051758 125.90625 C171.50642319 124.55409393 171.50642319 124.55409393 171.48184204 123.17462158 C171.4373625 119.04513289 171.39631661 114.91580516 171.37329102 110.78613281 C171.35674307 108.60959167 171.32946856 106.4331046 171.29125977 104.25683594 C171.23642151 101.11722647 171.21460483 97.97889146 171.19995117 94.83886719 C171.1772818 93.86991516 171.15461243 92.90096313 171.1312561 91.90264893 C171.14493193 87.51662336 171.23110252 84.23904835 173.94360352 80.66210938 C178.88424608 76.39404682 184.25344571 77.09056543 190.49682617 77.05761719 C191.33879547 77.05191711 192.18076477 77.04621704 193.04824829 77.04034424 C194.82504022 77.03092331 196.6018494 77.02437185 198.37866211 77.02050781 C201.08242526 77.01079951 203.78542854 76.97974791 206.48901367 76.94824219 C208.22078002 76.94171138 209.95255177 76.93646121 211.68432617 76.93261719 C212.48558929 76.92027039 213.28685242 76.90792358 214.11239624 76.89520264 C219.38498678 76.91591026 223.05923569 77.74372202 227.72338867 80.26074219 C230.20153476 83.66819306 230.72338867 85.61131125 230.72338867 89.82324219 C229.47542383 94.11312133 228.29080136 95.56576973 224.72338867 98.26074219 C221.42775017 98.86145222 218.24665029 98.73493086 214.91088867 98.57324219 C214.02723633 98.55068359 213.14358398 98.528125 212.2331543 98.50488281 C210.06249957 98.44621647 207.89272177 98.35654198 205.72338867 98.26074219 C206.86614258 99.84048828 206.86614258 99.84048828 208.03198242 101.45214844 C214.74692466 110.80303595 221.05061491 120.24297505 226.72338867 130.26074219 C227.26576172 131.20191895 227.26576172 131.20191895 227.8190918 132.16210938 C242.75485879 158.25360357 252.23164891 187.58951912 256.72338867 217.26074219 C256.90071533 218.37956787 257.07804199 219.49839355 257.26074219 220.65112305 C258.94215213 232.37310203 259.08072799 243.99573237 259.03588867 255.82324219 C259.03373352 256.84397827 259.03157837 257.86471436 259.02935791 258.91638184 C258.97968966 273.55904217 258.66918555 287.87063118 255.72338867 302.26074219 C255.5300293 303.25734863 255.33666992 304.25395508 255.13745117 305.28076172 C247.01866994 346.36956273 229.64923752 383.46373713 203.72338867 416.26074219 C202.9112793 417.2984375 202.09916992 418.33613281 201.26245117 419.40527344 C188.5974618 434.96682978 174.0471327 449.56288636 157.72338867 461.26074219 C156.37813275 462.2500484 155.03309096 463.23964584 153.68823242 464.22949219 C122.38145776 487.02954011 86.82326693 502.24902902 48.72338867 509.26074219 C47.92271973 509.42155273 47.12205078 509.58236328 46.29711914 509.74804688 C18.23011823 515.23806319 -15.27845377 515.01017934 -43.27661133 509.26074219 C-44.28916992 509.06206543 -45.30172852 508.86338867 -46.3449707 508.65869141 C-87.43761182 500.44139424 -124.3729755 483.00057021 -157.27661133 457.26074219 C-157.81576172 456.84163574 -158.35491211 456.4225293 -158.91040039 455.99072266 C-175.15047438 443.22770344 -190.22123476 428.03647729 -202.27661133 411.26074219 C-203.14036403 410.09085762 -204.00496602 408.92159969 -204.87036133 407.75292969 C-220.01368875 387.12691788 -232.09582782 364.51777092 -240.27661133 340.26074219 C-240.68967529 339.03822754 -240.68967529 339.03822754 -241.11108398 337.79101562 C-244.34916638 328.02016542 -246.88146606 318.13855482 -249.02661133 308.07324219 C-249.22536865 307.14858154 -249.42412598 306.2239209 -249.62890625 305.27124023 C-252.9216016 289.06463042 -253.65191411 273.13037199 -253.58911133 256.63574219 C-253.58695618 255.61750366 -253.58480103 254.59926514 -253.58258057 253.5501709 C-253.53287742 238.92595379 -253.21869121 224.6326958 -250.27661133 210.26074219 C-249.98657227 208.76583252 -249.98657227 208.76583252 -249.69067383 207.24072266 C-242.06201914 168.63243091 -226.34918815 132.4790734 -202.27661133 101.26074219 C-201.31174805 100.00777344 -201.31174805 100.00777344 -200.32739258 98.72949219 C-186.2245651 80.77540141 -169.87057722 63.58716811 -151.27661133 50.26074219 C-150.73488281 49.86886719 -150.1931543 49.47699219 -149.63500977 49.07324219 C-128.6145839 33.92158964 -105.85070968 21.54845873 -81.27661133 13.26074219 C-80.05409668 12.84767822 -80.05409668 12.84767822 -78.80688477 12.42626953 C-69.03603456 9.18818713 -59.15442396 6.65588746 -49.08911133 4.51074219 C-48.16445068 4.31198486 -47.23979004 4.11322754 -46.28710938 3.90844727 C-30.8495889 0.77200772 -15.71864572 -0.06614628 0 0 Z " fill="#000000" transform="translate(253.276611328125,-0.2607421875)"/>
<path d="M0 0 C0.89895996 0.19867676 1.79791992 0.39735352 2.72412109 0.60205078 C30.83857721 6.96246409 56.02554228 18.62029413 79 36 C79.9590625 36.71414062 80.918125 37.42828125 81.90625 38.1640625 C122.10920196 69.52720876 145.96388689 116.15266292 152.6171875 166.21875 C157.64121255 216.63963961 144.04222028 267.88905278 112.1640625 307.578125 C79.01938877 347.74364685 33.18986053 373.54653887 -18.88659668 378.82177734 C-25.14261414 379.34934538 -31.41364739 379.34579343 -37.6875 379.3125 C-38.4263443 379.31034485 -39.1651886 379.3081897 -39.92642212 379.30596924 C-93.47747926 379.05667002 -140.71229268 356.77269781 -178.16870117 319.19995117 C-211.80625301 284.55585053 -229.54307998 236.19732788 -229.3125 188.3125 C-229.31067719 187.52319092 -229.30885437 186.73388184 -229.30697632 185.9206543 C-229.25962457 173.71593495 -228.64937722 161.9508817 -226 150 C-225.75056641 148.80528076 -225.75056641 148.80528076 -225.49609375 147.58642578 C-221.76802935 129.99203297 -215.58885565 113.51565767 -207.3125 97.5625 C-206.86116699 96.69246338 -206.40983398 95.82242676 -205.94482422 94.92602539 C-199.75609847 83.37804923 -199.75609847 83.37804923 -195 81 C-188.04843305 80.43019943 -188.04843305 80.43019943 -184.125 82.5625 C-181.3651574 85.72820181 -180.55628791 87.82784066 -180 92 C-181.77069405 97.55275902 -184.18246095 102.22866611 -187.1875 107.1875 C-196.33546204 122.96717076 -201.47415857 140.19355803 -205 158 C-205.24621094 159.19882813 -205.49242187 160.39765625 -205.74609375 161.6328125 C-213.02599253 204.91055557 -201.02479227 251.29878108 -176.0625 287 C-170.62549207 294.56583965 -164.50891168 301.35141211 -158 308 C-157.31550781 308.73476563 -156.63101563 309.46953125 -155.92578125 310.2265625 C-135.81037451 331.39623584 -106.79701696 345.67089868 -78.8125 352.8125 C-78.05420898 353.00739014 -77.29591797 353.20228027 -76.51464844 353.40307617 C-63.91593702 356.42746003 -51.23803214 357.38540336 -38.3125 357.3125 C-37.27009659 357.30926727 -37.27009659 357.30926727 -36.20663452 357.30596924 C9.17311396 357.08139092 49.38932294 339.05778768 82 308 C82.71800781 307.33484375 83.43601562 306.6696875 84.17578125 305.984375 C112.85434366 278.62767017 130.14866867 235.65895474 131.3359375 196.4765625 C131.3658438 193.85951348 131.37836754 191.24221772 131.375 188.625 C131.37468277 187.59051224 131.37468277 187.59051224 131.37435913 186.53512573 C131.33456622 173.41383919 129.95675069 160.79626873 127 148 C126.82339844 147.23236328 126.64679688 146.46472656 126.46484375 145.67382812 C119.23511492 115.65706509 103.03794952 90.12833105 82 68 C81.38125 67.31679687 80.7625 66.63359375 80.125 65.9296875 C51.06284619 34.92140732 7.52010411 20.13650942 -33.91015625 17.77734375 C-66.34909988 17.00578666 -100.36174219 26.14581671 -127.6953125 43.734375 C-131.40903146 45.77377321 -134.88459694 45.82009844 -139 45 C-141.75569447 42.81840855 -143.43588747 41.12822506 -145 38 C-145.6077236 32.65203228 -144.30475529 30.16801668 -141 26 C-138.70047679 24.24201964 -136.24820641 22.90287216 -133.6875 21.5625 C-132.97746826 21.17980957 -132.26743652 20.79711914 -131.53588867 20.40283203 C-129.36759464 19.24733897 -127.1869906 18.11963864 -125 17 C-124.38157227 16.67854004 -123.76314453 16.35708008 -123.12597656 16.02587891 C-86.70225572 -2.7071795 -40.11025739 -9.14247726 0 0 Z " fill="#000000" transform="translate(294,68)"/>
<path d="M0 0 C2.82275936 1.25455972 4.46288541 2.28384722 6.3125 4.75 C7.35046873 8.14698856 7.47394861 10.44538544 7 14 C3.64874837 19.56469939 -0.95892096 24.24327462 -5.55615234 28.78320312 C-6.18125702 29.40859985 -6.80636169 30.03399658 -7.45040894 30.67834473 C-9.49087423 32.71743124 -11.53830164 34.74936648 -13.5859375 36.78125 C-15.0126958 38.204273 -16.43900935 39.62774203 -17.86489868 41.05163574 C-21.59883273 44.77797406 -25.33873594 48.49826397 -29.07995605 52.21728516 C-32.90461584 56.02139866 -36.72354204 59.83125867 -40.54296875 63.640625 C-48.0230762 71.09935424 -55.5095085 78.5517001 -63 86 C-62.78778809 86.73532959 -62.57557617 87.47065918 -62.35693359 88.22827148 C-62.08187988 89.20352783 -61.80682617 90.17878418 -61.5234375 91.18359375 C-61.24935059 92.14579834 -60.97526367 93.10800293 -60.69287109 94.09936523 C-58.58462805 102.92531155 -60.04203636 111.45157729 -64.2890625 119.41796875 C-70.02479443 128.57366919 -77.1663861 133.58965726 -87.4375 136.75 C-99.583787 137.93500361 -109.39739384 135.83322 -119 128 C-125.35525526 122.09768052 -129.53978812 114.03585578 -130.203125 105.3359375 C-130.21859375 104.35882813 -130.2340625 103.38171875 -130.25 102.375 C-130.27578125 101.41335937 -130.3015625 100.45171875 -130.328125 99.4609375 C-130.02933708 96.3094363 -129.40934938 93.79022965 -128.47949219 90.78369141 C-128.06627716 89.43834824 -128.06627716 89.43834824 -127.64471436 88.06582642 C-127.43195862 87.3841037 -127.21920288 86.70238098 -127 86 C-127.40676468 85.59989716 -127.81352936 85.19979431 -128.23262024 84.78756714 C-132.47565956 80.61104567 -136.70798445 76.42388478 -140.93432617 72.23046875 C-142.51169561 70.66815889 -144.09175068 69.10855561 -145.67456055 67.55175781 C-147.95297178 65.3098527 -150.22145596 63.0582994 -152.48828125 60.8046875 C-153.19463211 60.1138205 -153.90098297 59.42295349 -154.6287384 58.71115112 C-158.26053078 55.08060476 -161.15487155 51.89673749 -163 47 C-163 42.66360584 -162.45927758 40.62137555 -159.875 37.125 C-156.34143097 34.51323159 -154.39278346 33.92426235 -150 34 C-144.04435425 36.82889814 -139.89323834 40.70703847 -135.31640625 45.390625 C-134.61603745 46.09523865 -133.91566864 46.79985229 -133.19407654 47.52581787 C-130.97635851 49.76022096 -128.76934836 52.00486589 -126.5625 54.25 C-125.05343168 55.77412823 -123.54367288 57.29757314 -122.03320312 58.8203125 C-118.34744335 62.53900645 -114.67039974 66.26614798 -111 70 C-110.26394531 69.78778809 -109.52789062 69.57557617 -108.76953125 69.35693359 C-107.30580078 68.94435303 -107.30580078 68.94435303 -105.8125 68.5234375 C-104.84957031 68.24935059 -103.88664062 67.97526367 -102.89453125 67.69287109 C-96.32638797 66.12063842 -90.64135979 66.68642018 -84.1875 68.5234375 C-83.21167969 68.79849121 -82.23585938 69.07354492 -81.23046875 69.35693359 C-80.49441406 69.56914551 -79.75835937 69.78135742 -79 70 C-78.17172195 69.16728073 -77.34344391 68.33456146 -76.49006653 67.47660828 C-68.68260089 59.62859429 -60.86985589 51.78587033 -53.05191517 43.94829082 C-49.03283634 39.91877611 -45.0156387 35.88742262 -41.00268555 31.85180664 C-37.12970338 27.95708946 -33.25185218 24.06728209 -29.37058067 20.18082619 C-27.89087256 18.69742353 -26.41292551 17.21226202 -24.93677711 15.725317 C-22.868496 13.64251251 -20.79403443 11.56605688 -18.71801758 9.4909668 C-18.10949448 8.87525314 -17.50097137 8.25953949 -16.87400818 7.62516785 C-11.62639044 2.4028338 -7.79337551 -0.83500452 0 0 Z M-106.3125 93.125 C-108.60935017 97.03815214 -109.19954025 100.48240876 -109 105 C-107.40594023 109.69362043 -105.28109703 112.48718218 -101 115 C-96.53237966 116.20567943 -93.08964934 116.37006959 -88.6875 114.875 C-85.06558441 112.34808215 -82.61415022 110.27572103 -81.4296875 105.88671875 C-80.6171203 100.74334129 -80.93044663 97.39969317 -84 93 C-87.51840149 89.17115133 -90.75704807 88.2450557 -95.7890625 87.90234375 C-100.34800965 88.10371067 -103.05259418 90.12941086 -106.3125 93.125 Z " fill="#000000" transform="translate(351,154)"/>
<path d="M0 0 C3.11905047 2.57660691 4.7181368 4.1544104 6 8 C6.1484944 10.61864161 6.2310027 13.1932477 6.25 15.8125 C6.270625 16.51181641 6.29125 17.21113281 6.3125 17.93164062 C6.34832873 22.71925442 5.59951718 25.97435882 3 30 C-0.96129054 32.43771726 -3.05940621 33.12753814 -7.6875 32.5 C-11.59666058 30.72981408 -12.80280975 29.68076315 -15 26 C-15.60840527 22.48925136 -15.60407262 19.05568149 -15.5625 15.5 C-15.59827148 14.09427734 -15.59827148 14.09427734 -15.63476562 12.66015625 C-15.62481786 7.98470451 -15.54610141 5.71965444 -12.65234375 1.90625 C-8.17247064 -1.31345262 -5.28768945 -1.27633883 0 0 Z " fill="#000000" transform="translate(261,104)"/>
<path d="M0 0 C3.41369044 3.04530658 4.2803433 5.47827698 4.56640625 9.90625 C4.58624113 11.77072829 4.58429901 13.63554364 4.5625 15.5 C4.58634766 16.43714844 4.61019531 17.37429688 4.63476562 18.33984375 C4.624906 22.97386763 4.53142901 25.28266152 1.7109375 29.08984375 C-1.93402213 31.65812222 -4.56988722 32.44214433 -9 32 C-12.38271927 30.37128332 -14.36764331 29.18917588 -16.14453125 25.84765625 C-17.23074092 22.23191721 -17.32986193 18.80225935 -17.3125 15.0625 C-17.32861328 14.37220703 -17.34472656 13.68191406 -17.36132812 12.97070312 C-17.3658157 8.23630731 -16.55855902 4.98327867 -14 1 C-8.78864171 -2.20698972 -5.58258875 -2.52796472 0 0 Z " fill="#000000" transform="translate(262,377)"/>
<path d="M0 0 C0.93714844 -0.02384766 1.87429688 -0.04769531 2.83984375 -0.07226562 C7.47386763 -0.062406 9.78266152 0.03107099 13.58984375 2.8515625 C16.15812222 6.49652213 16.94214433 9.13238722 16.5 13.5625 C14.87128332 16.94521927 13.68917588 18.93014331 10.34765625 20.70703125 C6.73191721 21.79324092 3.30225935 21.89236193 -0.4375 21.875 C-1.47293945 21.89916992 -1.47293945 21.89916992 -2.52929688 21.92382812 C-7.26369269 21.9283157 -10.51672133 21.12105902 -14.5 18.5625 C-16.93771726 14.60120946 -17.62753814 12.50309379 -17 7.875 C-13.39563425 -0.08464104 -7.86825979 -0.09199478 0 0 Z " fill="#000000" transform="translate(392.5,245.4375)"/>
<path d="M0 0 C0.69029297 -0.01611328 1.38058594 -0.03222656 2.09179688 -0.04882812 C6.82619269 -0.0533157 10.07922133 0.75394098 14.0625 3.3125 C16.50021726 7.27379054 17.19003814 9.37190621 16.5625 14 C14.79231408 17.90916058 13.74326315 19.11530975 10.0625 21.3125 C6.55175136 21.92090527 3.11818149 21.91657262 -0.4375 21.875 C-1.84322266 21.91077148 -1.84322266 21.91077148 -3.27734375 21.94726562 C-7.91136763 21.937406 -10.22016152 21.84392901 -14.02734375 19.0234375 C-16.59562222 15.37847787 -17.37964433 12.74261278 -16.9375 8.3125 C-15.30878332 4.92978073 -14.12667588 2.94485669 -10.78515625 1.16796875 C-7.16941721 0.08175908 -3.73975935 -0.01736193 0 0 Z " fill="#000000" transform="translate(119.9375,244.6875)"/>
<path d="M0 0 C2.65834778 3.49382851 3.1875 5.49933957 3.1875 9.875 C1.67233372 13.89019063 0.7819747 15.47868353 -2.8125 17.875 C-7.40521203 18.61465025 -10.83712089 18.48461194 -14.8125 16 C-17.85023627 12.77240521 -18.21269503 10.43034544 -18.1640625 5.98046875 C-17.52910257 2.1777643 -15.60182244 0.47414137 -12.8125 -2.125 C-8.27174319 -4.32214039 -3.84966368 -2.90863478 0 0 Z " fill="#000000" transform="translate(332.8125,12.125)"/>
<path d="M0 0 C3.348157 2.37161121 4.65750859 4.01533721 6 7.875 C6 12.0430077 5.15607248 14.42900496 3 18 C-0.9794887 20.52544475 -3.01394307 21.15041546 -7.6875 20.4375 C-12.98927614 18.13672922 -12.98927614 18.13672922 -15 15 C-15.84715191 10.33629773 -15.65619755 7.04991608 -13.125 3 C-9.19474161 -0.69906672 -5.20854797 -0.79162733 0 0 Z " fill="#000000" transform="translate(133,118)"/>
</svg>
